<mxfile host="app.diagrams.net" agent="Mozilla/5.0 (Windows NT 10.0; Win64; x64) AppleWebKit/537.36 (KHTML, like Gecko) Chrome/128.0.0.0 Safari/537.36" version="24.7.12">
  <diagram name="Page-1" id="03018318-947c-dd8e-b7a3-06fadd420f32">
    <mxGraphModel dx="2098" dy="1155" grid="1" gridSize="10" guides="1" tooltips="1" connect="1" arrows="1" fold="1" page="1" pageScale="1" pageWidth="1100" pageHeight="850" background="#ffffff" math="0" shadow="0">
      <root>
        <mxCell id="0" />
        <mxCell id="1" parent="0" />
        <mxCell id="677b7b8949515195-1" value="" style="whiteSpace=wrap;html=1;rounded=0;shadow=0;labelBackgroundColor=none;strokeColor=#000000;strokeWidth=1;fillColor=none;fontFamily=Verdana;fontSize=12;fontColor=#000000;align=center;comic=0;" parent="1" vertex="1">
          <mxGeometry x="20" y="25" width="650" height="775" as="geometry" />
        </mxCell>
        <mxCell id="677b7b8949515195-2" value="LOGO" style="whiteSpace=wrap;html=1;rounded=0;shadow=0;labelBackgroundColor=none;strokeWidth=1;fontFamily=Verdana;fontSize=28;align=center;comic=0;" parent="1" vertex="1">
          <mxGeometry x="120" y="55" width="90" height="40" as="geometry" />
        </mxCell>
        <mxCell id="677b7b8949515195-9" value="" style="line;strokeWidth=1;html=1;rounded=0;shadow=0;labelBackgroundColor=none;fillColor=none;fontFamily=Verdana;fontSize=14;fontColor=#000000;align=center;comic=0;" parent="1" vertex="1">
          <mxGeometry x="20" y="120" width="650" height="10" as="geometry" />
        </mxCell>
        <mxCell id="677b7b8949515195-10" value="" style="whiteSpace=wrap;html=1;rounded=0;shadow=0;labelBackgroundColor=none;strokeWidth=1;fontFamily=Verdana;fontSize=12;align=center;comic=0;imageAspect=1;glass=0;" parent="1" vertex="1">
          <mxGeometry x="30" y="160" width="610" height="50" as="geometry" />
        </mxCell>
        <mxCell id="677b7b8949515195-25" value="" style="whiteSpace=wrap;html=1;rounded=0;shadow=0;labelBackgroundColor=none;strokeWidth=1;fillColor=none;fontFamily=Verdana;fontSize=12;align=center;comic=0;" parent="1" vertex="1">
          <mxGeometry x="490" y="240" width="150" height="400" as="geometry" />
        </mxCell>
        <mxCell id="677b7b8949515195-44" value="Legende" style="text;html=1;points=[];align=left;verticalAlign=top;spacingTop=-4;fontSize=14;fontFamily=Verdana" parent="1" vertex="1">
          <mxGeometry x="507" y="265" width="170" height="20" as="geometry" />
        </mxCell>
        <mxCell id="677b7b8949515195-45" value="Feature 2" style="text;html=1;points=[];align=left;verticalAlign=top;spacingTop=-4;fontSize=14;fontFamily=Verdana" parent="1" vertex="1">
          <mxGeometry x="550" y="300" width="170" height="20" as="geometry" />
        </mxCell>
        <mxCell id="677b7b8949515195-46" value="Feature 3" style="text;html=1;points=[];align=left;verticalAlign=top;spacingTop=-4;fontSize=14;fontFamily=Verdana" parent="1" vertex="1">
          <mxGeometry x="550" y="335" width="170" height="20" as="geometry" />
        </mxCell>
        <mxCell id="677b7b8949515195-47" value="Feature 4" style="text;html=1;points=[];align=left;verticalAlign=top;spacingTop=-4;fontSize=14;fontFamily=Verdana" parent="1" vertex="1">
          <mxGeometry x="550" y="365" width="170" height="20" as="geometry" />
        </mxCell>
        <mxCell id="YfUJsYa7JWNBY5BSQh2_-1" value="&lt;font style=&quot;font-size: 12px;&quot;&gt;Live&lt;/font&gt;&lt;div style=&quot;font-size: 12px;&quot;&gt;&lt;font style=&quot;font-size: 12px;&quot;&gt;Daten&lt;/font&gt;&lt;/div&gt;&lt;div style=&quot;font-size: 12px;&quot;&gt;&lt;font style=&quot;font-size: 12px;&quot;&gt;&lt;br&gt;&lt;/font&gt;&lt;/div&gt;" style="whiteSpace=wrap;html=1;rounded=0;shadow=0;labelBackgroundColor=none;strokeWidth=1;fontFamily=Verdana;fontSize=28;align=center;comic=0;jiggle=1;" parent="1" vertex="1">
          <mxGeometry x="265" y="1560" width="80" height="50" as="geometry" />
        </mxCell>
        <mxCell id="YfUJsYa7JWNBY5BSQh2_-4" value="" style="whiteSpace=wrap;html=1;rounded=0;shadow=0;labelBackgroundColor=none;strokeWidth=1;fillColor=#b1ddf0;fontFamily=Verdana;fontSize=12;align=center;comic=0;strokeColor=#10739e;" parent="1" vertex="1">
          <mxGeometry x="527" y="305" width="10" height="10" as="geometry" />
        </mxCell>
        <mxCell id="YfUJsYa7JWNBY5BSQh2_-5" value="" style="whiteSpace=wrap;html=1;rounded=0;shadow=0;labelBackgroundColor=none;strokeWidth=1;fillColor=#d0cee2;fontFamily=Verdana;fontSize=12;align=center;comic=0;strokeColor=#56517e;" parent="1" vertex="1">
          <mxGeometry x="527" y="340" width="10" height="10" as="geometry" />
        </mxCell>
        <mxCell id="YfUJsYa7JWNBY5BSQh2_-6" value="" style="whiteSpace=wrap;html=1;rounded=0;shadow=0;labelBackgroundColor=none;strokeWidth=1;fillColor=#fad9d5;fontFamily=Verdana;fontSize=12;align=center;comic=0;strokeColor=#ae4132;" parent="1" vertex="1">
          <mxGeometry x="527" y="375" width="10" height="10" as="geometry" />
        </mxCell>
        <mxCell id="YfUJsYa7JWNBY5BSQh2_-7" value="" style="rounded=0;whiteSpace=wrap;html=1;fillColor=default;" parent="1" vertex="1">
          <mxGeometry x="35" y="240" width="465" height="400" as="geometry" />
        </mxCell>
        <mxCell id="YfUJsYa7JWNBY5BSQh2_-8" value="" style="rounded=1;whiteSpace=wrap;html=1;fillColor=#959FA8;strokeColor=#23445d;" parent="1" vertex="1">
          <mxGeometry x="30" y="160" width="130" height="50" as="geometry" />
        </mxCell>
        <mxCell id="677b7b8949515195-11" value="Home" style="text;html=1;points=[];align=left;verticalAlign=top;spacingTop=-4;fontSize=14;fontFamily=Verdana" parent="1" vertex="1">
          <mxGeometry x="60" y="175" width="60" height="20" as="geometry" />
        </mxCell>
        <mxCell id="YfUJsYa7JWNBY5BSQh2_-10" value="" style="rounded=1;whiteSpace=wrap;html=1;fillColor=#dce1e5;strokeColor=#23445d;" parent="1" vertex="1">
          <mxGeometry x="160" y="160" width="130" height="50" as="geometry" />
        </mxCell>
        <mxCell id="677b7b8949515195-12" value="Panel 1" style="text;html=1;points=[];align=left;verticalAlign=top;spacingTop=-4;fontSize=14;fontFamily=Verdana" parent="1" vertex="1">
          <mxGeometry x="180" y="175" width="60" height="20" as="geometry" />
        </mxCell>
        <mxCell id="YfUJsYa7JWNBY5BSQh2_-11" value="" style="rounded=1;whiteSpace=wrap;html=1;fillColor=#dce1e5;strokeColor=#23445d;" parent="1" vertex="1">
          <mxGeometry x="290" y="160" width="130" height="50" as="geometry" />
        </mxCell>
        <mxCell id="677b7b8949515195-14" value="Panel 2" style="text;html=1;points=[];align=left;verticalAlign=top;spacingTop=-4;fontSize=14;fontFamily=Verdana" parent="1" vertex="1">
          <mxGeometry x="315" y="175" width="60" height="20" as="geometry" />
        </mxCell>
        <mxCell id="YfUJsYa7JWNBY5BSQh2_-35" value="" style="ellipse;whiteSpace=wrap;html=1;aspect=fixed;" parent="1" vertex="1">
          <mxGeometry x="590" y="60" width="50" height="50" as="geometry" />
        </mxCell>
        <mxCell id="YfUJsYa7JWNBY5BSQh2_-36" value="" style="shape=umlActor;verticalLabelPosition=bottom;verticalAlign=top;html=1;outlineConnect=0;" parent="1" vertex="1">
          <mxGeometry x="610" y="75" width="10" height="20" as="geometry" />
        </mxCell>
        <mxCell id="YfUJsYa7JWNBY5BSQh2_-38" value="" style="rounded=0;whiteSpace=wrap;html=1;" parent="1" vertex="1">
          <mxGeometry x="20" y="680" width="650" height="120" as="geometry" />
        </mxCell>
        <mxCell id="YfUJsYa7JWNBY5BSQh2_-39" value="&lt;font style=&quot;font-size: 20px;&quot;&gt;Impressum&lt;/font&gt;" style="rounded=0;whiteSpace=wrap;html=1;" parent="1" vertex="1">
          <mxGeometry x="230" y="722.5" width="150" height="35" as="geometry" />
        </mxCell>
        <mxCell id="YfUJsYa7JWNBY5BSQh2_-40" value="&lt;font style=&quot;font-size: 20px;&quot;&gt;AGB&lt;/font&gt;" style="rounded=0;whiteSpace=wrap;html=1;" parent="1" vertex="1">
          <mxGeometry x="50" y="722.5" width="150" height="35" as="geometry" />
        </mxCell>
        <mxCell id="NpDlIRzmC5MDV6J9_U-j-1" value="" style="endArrow=none;html=1;rounded=0;" parent="1" edge="1">
          <mxGeometry width="50" height="50" relative="1" as="geometry">
            <mxPoint x="90" y="300" as="sourcePoint" />
            <mxPoint x="90" y="570" as="targetPoint" />
          </mxGeometry>
        </mxCell>
        <mxCell id="NpDlIRzmC5MDV6J9_U-j-2" value="" style="endArrow=none;html=1;rounded=0;" parent="1" edge="1">
          <mxGeometry width="50" height="50" relative="1" as="geometry">
            <mxPoint x="90" y="570" as="sourcePoint" />
            <mxPoint x="360" y="570" as="targetPoint" />
          </mxGeometry>
        </mxCell>
        <mxCell id="NpDlIRzmC5MDV6J9_U-j-3" value="" style="curved=1;endArrow=classic;html=1;rounded=0;" parent="1" edge="1">
          <mxGeometry width="50" height="50" relative="1" as="geometry">
            <mxPoint x="90" y="460" as="sourcePoint" />
            <mxPoint x="250" y="550" as="targetPoint" />
            <Array as="points">
              <mxPoint x="150" y="610" />
              <mxPoint x="240" y="310" />
            </Array>
          </mxGeometry>
        </mxCell>
        <mxCell id="NpDlIRzmC5MDV6J9_U-j-4" value="" style="shape=flexArrow;endArrow=classic;html=1;rounded=0;fillColor=#f8cecc;strokeColor=#b85450;" parent="1" edge="1">
          <mxGeometry width="50" height="50" relative="1" as="geometry">
            <mxPoint x="427" y="184.67" as="sourcePoint" />
            <mxPoint x="537" y="184.67" as="targetPoint" />
          </mxGeometry>
        </mxCell>
        <mxCell id="NpDlIRzmC5MDV6J9_U-j-10" value="" style="group" parent="1" vertex="1" connectable="0">
          <mxGeometry x="40" y="55" width="50" height="40" as="geometry" />
        </mxCell>
        <mxCell id="YfUJsYa7JWNBY5BSQh2_-2" value="&lt;div style=&quot;font-size: 13px;&quot;&gt;&lt;br&gt;&lt;/div&gt;" style="whiteSpace=wrap;html=1;rounded=0;shadow=0;labelBackgroundColor=none;strokeWidth=1;fontFamily=Verdana;fontSize=28;align=center;comic=0;" parent="NpDlIRzmC5MDV6J9_U-j-10" vertex="1">
          <mxGeometry width="50" height="40" as="geometry" />
        </mxCell>
        <mxCell id="NpDlIRzmC5MDV6J9_U-j-6" value="" style="endArrow=none;html=1;rounded=0;" parent="NpDlIRzmC5MDV6J9_U-j-10" edge="1">
          <mxGeometry width="50" height="50" relative="1" as="geometry">
            <mxPoint x="10" y="9.659999999999997" as="sourcePoint" />
            <mxPoint x="40" y="9.659999999999997" as="targetPoint" />
          </mxGeometry>
        </mxCell>
        <mxCell id="NpDlIRzmC5MDV6J9_U-j-7" value="" style="endArrow=none;html=1;rounded=0;" parent="NpDlIRzmC5MDV6J9_U-j-10" edge="1">
          <mxGeometry width="50" height="50" relative="1" as="geometry">
            <mxPoint x="10" y="19.72" as="sourcePoint" />
            <mxPoint x="40" y="19.72" as="targetPoint" />
          </mxGeometry>
        </mxCell>
        <mxCell id="NpDlIRzmC5MDV6J9_U-j-8" value="" style="endArrow=none;html=1;rounded=0;" parent="NpDlIRzmC5MDV6J9_U-j-10" edge="1">
          <mxGeometry width="50" height="50" relative="1" as="geometry">
            <mxPoint x="10" y="29.86" as="sourcePoint" />
            <mxPoint x="40" y="29.86" as="targetPoint" />
          </mxGeometry>
        </mxCell>
        <mxCell id="NpDlIRzmC5MDV6J9_U-j-13" value="" style="group" parent="1" vertex="1" connectable="0">
          <mxGeometry x="31" y="1046" width="699" height="400" as="geometry" />
        </mxCell>
        <mxCell id="YfUJsYa7JWNBY5BSQh2_-22" value="" style="whiteSpace=wrap;html=1;rounded=0;shadow=0;labelBackgroundColor=none;strokeWidth=1;fillColor=none;fontFamily=Verdana;fontSize=12;align=center;comic=0;" parent="NpDlIRzmC5MDV6J9_U-j-13" vertex="1">
          <mxGeometry x="466.335734870317" width="145.03746397694525" height="400" as="geometry" />
        </mxCell>
        <mxCell id="YfUJsYa7JWNBY5BSQh2_-23" value="" style="rounded=0;whiteSpace=wrap;html=1;fillColor=default;" parent="NpDlIRzmC5MDV6J9_U-j-13" vertex="1">
          <mxGeometry width="470.36455331412105" height="400" as="geometry" />
        </mxCell>
        <mxCell id="YfUJsYa7JWNBY5BSQh2_-24" value="&lt;font style=&quot;font-size: 50px;&quot;&gt;&lt;b&gt;x KWH&lt;/b&gt;&lt;/font&gt;" style="ellipse;whiteSpace=wrap;html=1;aspect=fixed;" parent="NpDlIRzmC5MDV6J9_U-j-13" vertex="1">
          <mxGeometry x="22.15850144092219" y="25" width="350" height="350" as="geometry" />
        </mxCell>
        <mxCell id="YfUJsYa7JWNBY5BSQh2_-27" value="Legende" style="text;html=1;points=[];align=left;verticalAlign=top;spacingTop=-4;fontSize=14;fontFamily=Verdana" parent="NpDlIRzmC5MDV6J9_U-j-13" vertex="1">
          <mxGeometry x="477.4149855907781" y="25" width="171.22478386167148" height="20" as="geometry" />
        </mxCell>
        <mxCell id="YfUJsYa7JWNBY5BSQh2_-28" value="Feature 2" style="text;html=1;points=[];align=left;verticalAlign=top;spacingTop=-4;fontSize=14;fontFamily=Verdana" parent="NpDlIRzmC5MDV6J9_U-j-13" vertex="1">
          <mxGeometry x="527.7752161383286" y="60" width="171.22478386167148" height="20" as="geometry" />
        </mxCell>
        <mxCell id="YfUJsYa7JWNBY5BSQh2_-29" value="Feature 3" style="text;html=1;points=[];align=left;verticalAlign=top;spacingTop=-4;fontSize=14;fontFamily=Verdana" parent="NpDlIRzmC5MDV6J9_U-j-13" vertex="1">
          <mxGeometry x="527.7752161383286" y="95" width="171.22478386167148" height="20" as="geometry" />
        </mxCell>
        <mxCell id="YfUJsYa7JWNBY5BSQh2_-30" value="Feature 4" style="text;html=1;points=[];align=left;verticalAlign=top;spacingTop=-4;fontSize=14;fontFamily=Verdana" parent="NpDlIRzmC5MDV6J9_U-j-13" vertex="1">
          <mxGeometry x="527.7752161383286" y="130" width="171.22478386167148" height="20" as="geometry" />
        </mxCell>
        <mxCell id="YfUJsYa7JWNBY5BSQh2_-31" value="" style="whiteSpace=wrap;html=1;rounded=0;shadow=0;labelBackgroundColor=none;strokeWidth=1;fillColor=#b1ddf0;fontFamily=Verdana;fontSize=12;align=center;comic=0;strokeColor=#10739e;" parent="NpDlIRzmC5MDV6J9_U-j-13" vertex="1">
          <mxGeometry x="497.5590778097983" y="65" width="10.072046109510087" height="10" as="geometry" />
        </mxCell>
        <mxCell id="YfUJsYa7JWNBY5BSQh2_-32" value="" style="whiteSpace=wrap;html=1;rounded=0;shadow=0;labelBackgroundColor=none;strokeWidth=1;fillColor=#d0cee2;fontFamily=Verdana;fontSize=12;align=center;comic=0;strokeColor=#56517e;" parent="NpDlIRzmC5MDV6J9_U-j-13" vertex="1">
          <mxGeometry x="497.5590778097983" y="100" width="10.072046109510087" height="10" as="geometry" />
        </mxCell>
        <mxCell id="YfUJsYa7JWNBY5BSQh2_-33" value="" style="whiteSpace=wrap;html=1;rounded=0;shadow=0;labelBackgroundColor=none;strokeWidth=1;fillColor=#fad9d5;fontFamily=Verdana;fontSize=12;align=center;comic=0;strokeColor=#ae4132;" parent="NpDlIRzmC5MDV6J9_U-j-13" vertex="1">
          <mxGeometry x="497.5590778097983" y="135" width="10.072046109510087" height="10" as="geometry" />
        </mxCell>
        <mxCell id="NpDlIRzmC5MDV6J9_U-j-14" value="" style="group" parent="1" vertex="1" connectable="0">
          <mxGeometry x="575" y="710" width="65" height="60" as="geometry" />
        </mxCell>
        <mxCell id="YfUJsYa7JWNBY5BSQh2_-43" value="" style="rounded=0;whiteSpace=wrap;html=1;" parent="NpDlIRzmC5MDV6J9_U-j-14" vertex="1">
          <mxGeometry width="65" height="60" as="geometry" />
        </mxCell>
        <mxCell id="YfUJsYa7JWNBY5BSQh2_-44" value="" style="ellipse;whiteSpace=wrap;html=1;aspect=fixed;" parent="NpDlIRzmC5MDV6J9_U-j-14" vertex="1">
          <mxGeometry x="7.5" y="5" width="50" height="50" as="geometry" />
        </mxCell>
        <mxCell id="YfUJsYa7JWNBY5BSQh2_-45" value="" style="shape=umlActor;verticalLabelPosition=bottom;verticalAlign=top;html=1;outlineConnect=0;" parent="NpDlIRzmC5MDV6J9_U-j-14" vertex="1">
          <mxGeometry x="27.5" y="20" width="10" height="20" as="geometry" />
        </mxCell>
        <mxCell id="NpDlIRzmC5MDV6J9_U-j-16" value="" style="shape=flexArrow;endArrow=classic;html=1;rounded=0;fillColor=#f8cecc;strokeColor=#b85450;" parent="1" edge="1">
          <mxGeometry width="50" height="50" relative="1" as="geometry">
            <mxPoint x="375" y="530" as="sourcePoint" />
            <mxPoint x="375" y="660" as="targetPoint" />
          </mxGeometry>
        </mxCell>
        <mxCell id="NpDlIRzmC5MDV6J9_U-j-17" value="" style="whiteSpace=wrap;html=1;rounded=0;shadow=0;labelBackgroundColor=none;strokeColor=#000000;strokeWidth=1;fillColor=none;fontFamily=Verdana;fontSize=12;fontColor=#000000;align=center;comic=0;" parent="1" vertex="1">
          <mxGeometry x="20" y="860" width="650" height="775" as="geometry" />
        </mxCell>
        <mxCell id="NpDlIRzmC5MDV6J9_U-j-18" value="LOGO" style="whiteSpace=wrap;html=1;rounded=0;shadow=0;labelBackgroundColor=none;strokeWidth=1;fontFamily=Verdana;fontSize=28;align=center;comic=0;" parent="1" vertex="1">
          <mxGeometry x="120" y="890" width="90" height="40" as="geometry" />
        </mxCell>
        <mxCell id="NpDlIRzmC5MDV6J9_U-j-19" value="" style="line;strokeWidth=1;html=1;rounded=0;shadow=0;labelBackgroundColor=none;fillColor=none;fontFamily=Verdana;fontSize=14;fontColor=#000000;align=center;comic=0;" parent="1" vertex="1">
          <mxGeometry x="20" y="955" width="650" height="10" as="geometry" />
        </mxCell>
        <mxCell id="NpDlIRzmC5MDV6J9_U-j-36" value="" style="ellipse;whiteSpace=wrap;html=1;aspect=fixed;" parent="1" vertex="1">
          <mxGeometry x="590" y="895" width="50" height="50" as="geometry" />
        </mxCell>
        <mxCell id="NpDlIRzmC5MDV6J9_U-j-37" value="" style="shape=umlActor;verticalLabelPosition=bottom;verticalAlign=top;html=1;outlineConnect=0;" parent="1" vertex="1">
          <mxGeometry x="610" y="910" width="10" height="20" as="geometry" />
        </mxCell>
        <mxCell id="NpDlIRzmC5MDV6J9_U-j-38" value="" style="rounded=0;whiteSpace=wrap;html=1;" parent="1" vertex="1">
          <mxGeometry x="20" y="1515" width="650" height="120" as="geometry" />
        </mxCell>
        <mxCell id="NpDlIRzmC5MDV6J9_U-j-39" value="&lt;font style=&quot;font-size: 20px;&quot;&gt;Impressum&lt;/font&gt;" style="rounded=0;whiteSpace=wrap;html=1;" parent="1" vertex="1">
          <mxGeometry x="230" y="1557.5" width="150" height="35" as="geometry" />
        </mxCell>
        <mxCell id="NpDlIRzmC5MDV6J9_U-j-40" value="&lt;font style=&quot;font-size: 20px;&quot;&gt;AGB&lt;/font&gt;" style="rounded=0;whiteSpace=wrap;html=1;" parent="1" vertex="1">
          <mxGeometry x="50" y="1557.5" width="150" height="35" as="geometry" />
        </mxCell>
        <mxCell id="NpDlIRzmC5MDV6J9_U-j-45" value="" style="group" parent="1" vertex="1" connectable="0">
          <mxGeometry x="40" y="890" width="50" height="40" as="geometry" />
        </mxCell>
        <mxCell id="NpDlIRzmC5MDV6J9_U-j-46" value="&lt;div style=&quot;font-size: 13px;&quot;&gt;&lt;br&gt;&lt;/div&gt;" style="whiteSpace=wrap;html=1;rounded=0;shadow=0;labelBackgroundColor=none;strokeWidth=1;fontFamily=Verdana;fontSize=28;align=center;comic=0;" parent="NpDlIRzmC5MDV6J9_U-j-45" vertex="1">
          <mxGeometry width="50" height="40" as="geometry" />
        </mxCell>
        <mxCell id="NpDlIRzmC5MDV6J9_U-j-47" value="" style="endArrow=none;html=1;rounded=0;" parent="NpDlIRzmC5MDV6J9_U-j-45" edge="1">
          <mxGeometry width="50" height="50" relative="1" as="geometry">
            <mxPoint x="10" y="9.659999999999997" as="sourcePoint" />
            <mxPoint x="40" y="9.659999999999997" as="targetPoint" />
          </mxGeometry>
        </mxCell>
        <mxCell id="NpDlIRzmC5MDV6J9_U-j-48" value="" style="endArrow=none;html=1;rounded=0;" parent="NpDlIRzmC5MDV6J9_U-j-45" edge="1">
          <mxGeometry width="50" height="50" relative="1" as="geometry">
            <mxPoint x="10" y="19.72" as="sourcePoint" />
            <mxPoint x="40" y="19.72" as="targetPoint" />
          </mxGeometry>
        </mxCell>
        <mxCell id="NpDlIRzmC5MDV6J9_U-j-49" value="" style="endArrow=none;html=1;rounded=0;" parent="NpDlIRzmC5MDV6J9_U-j-45" edge="1">
          <mxGeometry width="50" height="50" relative="1" as="geometry">
            <mxPoint x="10" y="29.86" as="sourcePoint" />
            <mxPoint x="40" y="29.86" as="targetPoint" />
          </mxGeometry>
        </mxCell>
        <mxCell id="NpDlIRzmC5MDV6J9_U-j-50" value="" style="group" parent="1" vertex="1" connectable="0">
          <mxGeometry x="575" y="1545" width="65" height="60" as="geometry" />
        </mxCell>
        <mxCell id="NpDlIRzmC5MDV6J9_U-j-51" value="" style="rounded=0;whiteSpace=wrap;html=1;" parent="NpDlIRzmC5MDV6J9_U-j-50" vertex="1">
          <mxGeometry width="65" height="60" as="geometry" />
        </mxCell>
        <mxCell id="NpDlIRzmC5MDV6J9_U-j-52" value="" style="ellipse;whiteSpace=wrap;html=1;aspect=fixed;" parent="NpDlIRzmC5MDV6J9_U-j-50" vertex="1">
          <mxGeometry x="7.5" y="5" width="50" height="50" as="geometry" />
        </mxCell>
        <mxCell id="NpDlIRzmC5MDV6J9_U-j-53" value="" style="shape=umlActor;verticalLabelPosition=bottom;verticalAlign=top;html=1;outlineConnect=0;" parent="NpDlIRzmC5MDV6J9_U-j-50" vertex="1">
          <mxGeometry x="27.5" y="20" width="10" height="20" as="geometry" />
        </mxCell>
        <mxCell id="NpDlIRzmC5MDV6J9_U-j-55" value="" style="group" parent="1" vertex="1" connectable="0">
          <mxGeometry x="30" y="960" width="610" height="50" as="geometry" />
        </mxCell>
        <mxCell id="NpDlIRzmC5MDV6J9_U-j-20" value="" style="whiteSpace=wrap;html=1;rounded=0;shadow=0;labelBackgroundColor=none;strokeWidth=1;fontFamily=Verdana;fontSize=12;align=center;comic=0;imageAspect=1;glass=0;" parent="NpDlIRzmC5MDV6J9_U-j-55" vertex="1">
          <mxGeometry width="610" height="50" as="geometry" />
        </mxCell>
        <mxCell id="NpDlIRzmC5MDV6J9_U-j-30" value="" style="rounded=1;whiteSpace=wrap;html=1;fillColor=#959FA8;strokeColor=#23445d;" parent="NpDlIRzmC5MDV6J9_U-j-55" vertex="1">
          <mxGeometry width="130" height="50" as="geometry" />
        </mxCell>
        <mxCell id="NpDlIRzmC5MDV6J9_U-j-31" value="Home" style="text;html=1;points=[];align=left;verticalAlign=top;spacingTop=-4;fontSize=14;fontFamily=Verdana" parent="NpDlIRzmC5MDV6J9_U-j-55" vertex="1">
          <mxGeometry x="30" y="15" width="60" height="20" as="geometry" />
        </mxCell>
        <mxCell id="NpDlIRzmC5MDV6J9_U-j-32" value="" style="rounded=1;whiteSpace=wrap;html=1;fillColor=#dce1e5;strokeColor=#23445d;" parent="NpDlIRzmC5MDV6J9_U-j-55" vertex="1">
          <mxGeometry x="130" width="130" height="50" as="geometry" />
        </mxCell>
        <mxCell id="NpDlIRzmC5MDV6J9_U-j-33" value="Panel 1" style="text;html=1;points=[];align=left;verticalAlign=top;spacingTop=-4;fontSize=14;fontFamily=Verdana" parent="NpDlIRzmC5MDV6J9_U-j-55" vertex="1">
          <mxGeometry x="150" y="15" width="60" height="20" as="geometry" />
        </mxCell>
        <mxCell id="NpDlIRzmC5MDV6J9_U-j-34" value="" style="rounded=1;whiteSpace=wrap;html=1;fillColor=#dce1e5;strokeColor=#23445d;" parent="NpDlIRzmC5MDV6J9_U-j-55" vertex="1">
          <mxGeometry x="260" width="130" height="50" as="geometry" />
        </mxCell>
        <mxCell id="NpDlIRzmC5MDV6J9_U-j-35" value="Panel 2" style="text;html=1;points=[];align=left;verticalAlign=top;spacingTop=-4;fontSize=14;fontFamily=Verdana" parent="NpDlIRzmC5MDV6J9_U-j-55" vertex="1">
          <mxGeometry x="285" y="15" width="60" height="20" as="geometry" />
        </mxCell>
        <mxCell id="NpDlIRzmC5MDV6J9_U-j-56" value="" style="whiteSpace=wrap;html=1;rounded=0;shadow=0;labelBackgroundColor=none;strokeColor=#000000;strokeWidth=1;fillColor=none;fontFamily=Verdana;fontSize=12;fontColor=#000000;align=center;comic=0;" parent="1" vertex="1">
          <mxGeometry x="740" y="25" width="650" height="775" as="geometry" />
        </mxCell>
        <mxCell id="NpDlIRzmC5MDV6J9_U-j-57" value="LOGO" style="whiteSpace=wrap;html=1;rounded=0;shadow=0;labelBackgroundColor=none;strokeWidth=1;fontFamily=Verdana;fontSize=28;align=center;comic=0;" parent="1" vertex="1">
          <mxGeometry x="840" y="55" width="90" height="40" as="geometry" />
        </mxCell>
        <mxCell id="NpDlIRzmC5MDV6J9_U-j-58" value="" style="line;strokeWidth=1;html=1;rounded=0;shadow=0;labelBackgroundColor=none;fillColor=none;fontFamily=Verdana;fontSize=14;fontColor=#000000;align=center;comic=0;" parent="1" vertex="1">
          <mxGeometry x="740" y="120" width="650" height="10" as="geometry" />
        </mxCell>
        <mxCell id="NpDlIRzmC5MDV6J9_U-j-59" value="" style="whiteSpace=wrap;html=1;rounded=0;shadow=0;labelBackgroundColor=none;strokeWidth=1;fontFamily=Verdana;fontSize=12;align=center;comic=0;imageAspect=1;glass=0;" parent="1" vertex="1">
          <mxGeometry x="750" y="160" width="610" height="50" as="geometry" />
        </mxCell>
        <mxCell id="NpDlIRzmC5MDV6J9_U-j-60" value="" style="whiteSpace=wrap;html=1;rounded=0;shadow=0;labelBackgroundColor=none;strokeWidth=1;fillColor=none;fontFamily=Verdana;fontSize=12;align=center;comic=0;" parent="1" vertex="1">
          <mxGeometry x="1210" y="240" width="150" height="400" as="geometry" />
        </mxCell>
        <mxCell id="NpDlIRzmC5MDV6J9_U-j-61" value="Legende" style="text;html=1;points=[];align=left;verticalAlign=top;spacingTop=-4;fontSize=14;fontFamily=Verdana" parent="1" vertex="1">
          <mxGeometry x="1227" y="265" width="170" height="20" as="geometry" />
        </mxCell>
        <mxCell id="NpDlIRzmC5MDV6J9_U-j-62" value="Feature 2" style="text;html=1;points=[];align=left;verticalAlign=top;spacingTop=-4;fontSize=14;fontFamily=Verdana" parent="1" vertex="1">
          <mxGeometry x="1270" y="300" width="170" height="20" as="geometry" />
        </mxCell>
        <mxCell id="NpDlIRzmC5MDV6J9_U-j-63" value="Feature 3" style="text;html=1;points=[];align=left;verticalAlign=top;spacingTop=-4;fontSize=14;fontFamily=Verdana" parent="1" vertex="1">
          <mxGeometry x="1270" y="335" width="170" height="20" as="geometry" />
        </mxCell>
        <mxCell id="NpDlIRzmC5MDV6J9_U-j-64" value="Feature 4" style="text;html=1;points=[];align=left;verticalAlign=top;spacingTop=-4;fontSize=14;fontFamily=Verdana" parent="1" vertex="1">
          <mxGeometry x="1270" y="365" width="170" height="20" as="geometry" />
        </mxCell>
        <mxCell id="NpDlIRzmC5MDV6J9_U-j-65" value="" style="whiteSpace=wrap;html=1;rounded=0;shadow=0;labelBackgroundColor=none;strokeWidth=1;fillColor=#b1ddf0;fontFamily=Verdana;fontSize=12;align=center;comic=0;strokeColor=#10739e;" parent="1" vertex="1">
          <mxGeometry x="1247" y="305" width="10" height="10" as="geometry" />
        </mxCell>
        <mxCell id="NpDlIRzmC5MDV6J9_U-j-66" value="" style="whiteSpace=wrap;html=1;rounded=0;shadow=0;labelBackgroundColor=none;strokeWidth=1;fillColor=#d0cee2;fontFamily=Verdana;fontSize=12;align=center;comic=0;strokeColor=#56517e;" parent="1" vertex="1">
          <mxGeometry x="1247" y="340" width="10" height="10" as="geometry" />
        </mxCell>
        <mxCell id="NpDlIRzmC5MDV6J9_U-j-67" value="" style="whiteSpace=wrap;html=1;rounded=0;shadow=0;labelBackgroundColor=none;strokeWidth=1;fillColor=#fad9d5;fontFamily=Verdana;fontSize=12;align=center;comic=0;strokeColor=#ae4132;" parent="1" vertex="1">
          <mxGeometry x="1247" y="375" width="10" height="10" as="geometry" />
        </mxCell>
        <mxCell id="NpDlIRzmC5MDV6J9_U-j-68" value="" style="rounded=0;whiteSpace=wrap;html=1;fillColor=default;" parent="1" vertex="1">
          <mxGeometry x="755" y="240" width="465" height="400" as="geometry" />
        </mxCell>
        <mxCell id="NpDlIRzmC5MDV6J9_U-j-69" value="" style="rounded=1;whiteSpace=wrap;html=1;fillColor=#959FA8;strokeColor=#23445d;" parent="1" vertex="1">
          <mxGeometry x="750" y="160" width="130" height="50" as="geometry" />
        </mxCell>
        <mxCell id="NpDlIRzmC5MDV6J9_U-j-70" value="Home" style="text;html=1;points=[];align=left;verticalAlign=top;spacingTop=-4;fontSize=14;fontFamily=Verdana" parent="1" vertex="1">
          <mxGeometry x="780" y="175" width="60" height="20" as="geometry" />
        </mxCell>
        <mxCell id="NpDlIRzmC5MDV6J9_U-j-71" value="" style="rounded=1;whiteSpace=wrap;html=1;fillColor=#dce1e5;strokeColor=#23445d;" parent="1" vertex="1">
          <mxGeometry x="880" y="160" width="130" height="50" as="geometry" />
        </mxCell>
        <mxCell id="NpDlIRzmC5MDV6J9_U-j-72" value="Panel 1" style="text;html=1;points=[];align=left;verticalAlign=top;spacingTop=-4;fontSize=14;fontFamily=Verdana" parent="1" vertex="1">
          <mxGeometry x="900" y="175" width="60" height="20" as="geometry" />
        </mxCell>
        <mxCell id="NpDlIRzmC5MDV6J9_U-j-73" value="" style="rounded=1;whiteSpace=wrap;html=1;fillColor=#dce1e5;strokeColor=#23445d;" parent="1" vertex="1">
          <mxGeometry x="1010" y="160" width="130" height="50" as="geometry" />
        </mxCell>
        <mxCell id="NpDlIRzmC5MDV6J9_U-j-74" value="Panel 2" style="text;html=1;points=[];align=left;verticalAlign=top;spacingTop=-4;fontSize=14;fontFamily=Verdana" parent="1" vertex="1">
          <mxGeometry x="1035" y="175" width="60" height="20" as="geometry" />
        </mxCell>
        <mxCell id="NpDlIRzmC5MDV6J9_U-j-75" value="" style="ellipse;whiteSpace=wrap;html=1;aspect=fixed;fillStyle=auto;fillColor=#d5e8d4;strokeColor=#82b366;" parent="1" vertex="1">
          <mxGeometry x="1310" y="60" width="50" height="50" as="geometry" />
        </mxCell>
        <mxCell id="NpDlIRzmC5MDV6J9_U-j-76" value="" style="shape=umlActor;verticalLabelPosition=bottom;verticalAlign=top;html=1;outlineConnect=0;" parent="1" vertex="1">
          <mxGeometry x="1330" y="75" width="10" height="20" as="geometry" />
        </mxCell>
        <mxCell id="NpDlIRzmC5MDV6J9_U-j-77" value="" style="rounded=0;whiteSpace=wrap;html=1;" parent="1" vertex="1">
          <mxGeometry x="740" y="680" width="650" height="120" as="geometry" />
        </mxCell>
        <mxCell id="NpDlIRzmC5MDV6J9_U-j-78" value="&lt;font style=&quot;font-size: 20px;&quot;&gt;Impressum&lt;/font&gt;" style="rounded=0;whiteSpace=wrap;html=1;" parent="1" vertex="1">
          <mxGeometry x="950" y="722.5" width="150" height="35" as="geometry" />
        </mxCell>
        <mxCell id="NpDlIRzmC5MDV6J9_U-j-79" value="&lt;font style=&quot;font-size: 20px;&quot;&gt;AGB&lt;/font&gt;" style="rounded=0;whiteSpace=wrap;html=1;" parent="1" vertex="1">
          <mxGeometry x="770" y="722.5" width="150" height="35" as="geometry" />
        </mxCell>
        <mxCell id="NpDlIRzmC5MDV6J9_U-j-80" value="" style="endArrow=none;html=1;rounded=0;" parent="1" edge="1">
          <mxGeometry width="50" height="50" relative="1" as="geometry">
            <mxPoint x="810" y="300" as="sourcePoint" />
            <mxPoint x="810" y="570" as="targetPoint" />
          </mxGeometry>
        </mxCell>
        <mxCell id="NpDlIRzmC5MDV6J9_U-j-81" value="" style="endArrow=none;html=1;rounded=0;" parent="1" edge="1">
          <mxGeometry width="50" height="50" relative="1" as="geometry">
            <mxPoint x="810" y="570" as="sourcePoint" />
            <mxPoint x="1080" y="570" as="targetPoint" />
          </mxGeometry>
        </mxCell>
        <mxCell id="NpDlIRzmC5MDV6J9_U-j-82" value="" style="curved=1;endArrow=classic;html=1;rounded=0;" parent="1" edge="1">
          <mxGeometry width="50" height="50" relative="1" as="geometry">
            <mxPoint x="810" y="460" as="sourcePoint" />
            <mxPoint x="970" y="550" as="targetPoint" />
            <Array as="points">
              <mxPoint x="870" y="610" />
              <mxPoint x="960" y="310" />
            </Array>
          </mxGeometry>
        </mxCell>
        <mxCell id="NpDlIRzmC5MDV6J9_U-j-84" value="" style="group;fillColor=#f8cecc;strokeColor=#b85450;" parent="1" vertex="1" connectable="0">
          <mxGeometry x="760" y="55" width="50" height="40" as="geometry" />
        </mxCell>
        <mxCell id="NpDlIRzmC5MDV6J9_U-j-85" value="&lt;div style=&quot;font-size: 13px;&quot;&gt;&lt;br&gt;&lt;/div&gt;" style="whiteSpace=wrap;html=1;rounded=0;shadow=0;labelBackgroundColor=none;strokeWidth=1;fontFamily=Verdana;fontSize=28;align=center;comic=0;fillColor=#f8cecc;strokeColor=#b85450;" parent="NpDlIRzmC5MDV6J9_U-j-84" vertex="1">
          <mxGeometry width="50" height="40" as="geometry" />
        </mxCell>
        <mxCell id="NpDlIRzmC5MDV6J9_U-j-86" value="" style="endArrow=none;html=1;rounded=0;" parent="NpDlIRzmC5MDV6J9_U-j-84" edge="1">
          <mxGeometry width="50" height="50" relative="1" as="geometry">
            <mxPoint x="10" y="9.659999999999997" as="sourcePoint" />
            <mxPoint x="40" y="9.659999999999997" as="targetPoint" />
          </mxGeometry>
        </mxCell>
        <mxCell id="NpDlIRzmC5MDV6J9_U-j-87" value="" style="endArrow=none;html=1;rounded=0;" parent="NpDlIRzmC5MDV6J9_U-j-84" edge="1">
          <mxGeometry width="50" height="50" relative="1" as="geometry">
            <mxPoint x="10" y="19.72" as="sourcePoint" />
            <mxPoint x="40" y="19.72" as="targetPoint" />
          </mxGeometry>
        </mxCell>
        <mxCell id="NpDlIRzmC5MDV6J9_U-j-88" value="" style="endArrow=none;html=1;rounded=0;" parent="NpDlIRzmC5MDV6J9_U-j-84" edge="1">
          <mxGeometry width="50" height="50" relative="1" as="geometry">
            <mxPoint x="10" y="29.86" as="sourcePoint" />
            <mxPoint x="40" y="29.86" as="targetPoint" />
          </mxGeometry>
        </mxCell>
        <mxCell id="NpDlIRzmC5MDV6J9_U-j-89" value="" style="group" parent="1" vertex="1" connectable="0">
          <mxGeometry x="1295" y="710" width="65" height="60" as="geometry" />
        </mxCell>
        <mxCell id="NpDlIRzmC5MDV6J9_U-j-90" value="" style="rounded=0;whiteSpace=wrap;html=1;" parent="NpDlIRzmC5MDV6J9_U-j-89" vertex="1">
          <mxGeometry width="65" height="60" as="geometry" />
        </mxCell>
        <mxCell id="NpDlIRzmC5MDV6J9_U-j-91" value="" style="ellipse;whiteSpace=wrap;html=1;aspect=fixed;" parent="NpDlIRzmC5MDV6J9_U-j-89" vertex="1">
          <mxGeometry x="7.5" y="5" width="50" height="50" as="geometry" />
        </mxCell>
        <mxCell id="NpDlIRzmC5MDV6J9_U-j-92" value="" style="shape=umlActor;verticalLabelPosition=bottom;verticalAlign=top;html=1;outlineConnect=0;" parent="NpDlIRzmC5MDV6J9_U-j-89" vertex="1">
          <mxGeometry x="27.5" y="20" width="10" height="20" as="geometry" />
        </mxCell>
        <mxCell id="RZ3EieicBE1gM9EUcNEG-1" value="" style="rounded=0;whiteSpace=wrap;html=1;fillColor=#f8cecc;strokeColor=#b85450;" parent="1" vertex="1">
          <mxGeometry x="760" y="95" width="280" height="152" as="geometry" />
        </mxCell>
        <mxCell id="RZ3EieicBE1gM9EUcNEG-2" value="" style="rounded=0;whiteSpace=wrap;html=1;fillColor=#d5e8d4;strokeColor=#82b366;" parent="1" vertex="1">
          <mxGeometry x="1080" y="110" width="267" height="147" as="geometry" />
        </mxCell>
        <mxCell id="FbOejJHRGYcpnKGtLi1i-1" value="&lt;font style=&quot;font-size: 12px;&quot;&gt;Live&lt;/font&gt;&lt;div style=&quot;font-size: 12px;&quot;&gt;&lt;font style=&quot;font-size: 12px;&quot;&gt;Daten&lt;/font&gt;&lt;/div&gt;&lt;div style=&quot;font-size: 12px;&quot;&gt;&lt;font style=&quot;font-size: 12px;&quot;&gt;&lt;br&gt;&lt;/font&gt;&lt;/div&gt;" style="whiteSpace=wrap;html=1;rounded=0;shadow=0;labelBackgroundColor=none;strokeWidth=1;fontFamily=Verdana;fontSize=28;align=center;comic=0;jiggle=1;fillColor=#f8cecc;strokeColor=#b85450;" vertex="1" parent="1">
          <mxGeometry x="760" y="95" width="280" height="50" as="geometry" />
        </mxCell>
        <mxCell id="FbOejJHRGYcpnKGtLi1i-2" value="&lt;div style=&quot;font-size: 12px;&quot;&gt;&lt;font style=&quot;font-size: 12px;&quot;&gt;technische&amp;nbsp;&lt;/font&gt;&lt;/div&gt;&lt;div style=&quot;font-size: 12px;&quot;&gt;&lt;font style=&quot;font-size: 12px;&quot;&gt;Daten&lt;/font&gt;&lt;/div&gt;" style="whiteSpace=wrap;html=1;rounded=0;shadow=0;labelBackgroundColor=none;strokeWidth=1;fontFamily=Verdana;fontSize=28;align=center;comic=0;fillColor=#f8cecc;strokeColor=#b85450;" vertex="1" parent="1">
          <mxGeometry x="760" y="145" width="280" height="50" as="geometry" />
        </mxCell>
        <mxCell id="FbOejJHRGYcpnKGtLi1i-3" value="&lt;div style=&quot;font-size: 12px;&quot;&gt;Einstellungen&lt;/div&gt;" style="whiteSpace=wrap;html=1;rounded=0;shadow=0;labelBackgroundColor=none;strokeWidth=1;fontFamily=Verdana;fontSize=28;align=center;comic=0;fillColor=#f8cecc;strokeColor=#b85450;" vertex="1" parent="1">
          <mxGeometry x="760" y="195" width="280" height="52" as="geometry" />
        </mxCell>
        <mxCell id="FbOejJHRGYcpnKGtLi1i-4" value="&lt;div style=&quot;font-size: 12px;&quot;&gt;Profil&lt;br&gt;&lt;/div&gt;" style="whiteSpace=wrap;html=1;rounded=0;shadow=0;labelBackgroundColor=none;strokeWidth=1;fontFamily=Verdana;fontSize=28;align=center;comic=0;jiggle=1;fillColor=#d5e8d4;strokeColor=#82b366;" vertex="1" parent="1">
          <mxGeometry x="1080" y="110" width="267" height="50" as="geometry" />
        </mxCell>
        <mxCell id="FbOejJHRGYcpnKGtLi1i-5" value="&lt;div style=&quot;font-size: 12px;&quot;&gt;Profileinstellungen&lt;br&gt;&lt;/div&gt;" style="whiteSpace=wrap;html=1;rounded=0;shadow=0;labelBackgroundColor=none;strokeWidth=1;fontFamily=Verdana;fontSize=28;align=center;comic=0;jiggle=1;fillColor=#d5e8d4;strokeColor=#82b366;" vertex="1" parent="1">
          <mxGeometry x="1080" y="160" width="267" height="50" as="geometry" />
        </mxCell>
        <mxCell id="FbOejJHRGYcpnKGtLi1i-6" value="&lt;div style=&quot;font-size: 12px;&quot;&gt;Logout&lt;br&gt;&lt;/div&gt;" style="whiteSpace=wrap;html=1;rounded=0;shadow=0;labelBackgroundColor=none;strokeWidth=1;fontFamily=Verdana;fontSize=28;align=center;comic=0;jiggle=1;fillColor=#d5e8d4;strokeColor=#82b366;" vertex="1" parent="1">
          <mxGeometry x="1080" y="210" width="267" height="50" as="geometry" />
        </mxCell>
      </root>
    </mxGraphModel>
  </diagram>
</mxfile>
